<svg xmlns="http://www.w3.org/2000/svg" width="192" height="128" viewBox="0 0 192 128" fill="none">
  <rect width="192" height="128" fill="#0F172A"/>
  <g stroke="#1E293B" stroke-width="1">
    <path d="M32 0V128M64 0V128M96 0V128M128 0V128M160 0V128"/>
    <path d="M0 32H192M0 64H192M0 96H192"/>
  </g>
  <g>
    <rect x="2" y="2" width="28" height="28" rx="6" fill="#2E8B57"/><circle cx="16" cy="16" r="6" fill="#A7F3D0"/>
    <rect x="34" y="2" width="28" height="28" rx="6" fill="#3B82F6"/><path d="M40 20C45 10 51 10 56 20" stroke="#BFDBFE" stroke-width="3" stroke-linecap="round"/>
    <rect x="66" y="2" width="28" height="28" rx="6" fill="#B45309"/><path d="M72 21L80 11L88 21" stroke="#FDE68A" stroke-width="3" stroke-linecap="round" stroke-linejoin="round"/>
    <rect x="98" y="2" width="28" height="28" rx="6" fill="#6D28D9"/><circle cx="112" cy="16" r="7" fill="#DDD6FE"/>
    <rect x="130" y="2" width="28" height="28" rx="6" fill="#0F766E"/><path d="M136 21H152" stroke="#99F6E4" stroke-width="3" stroke-linecap="round"/>
    <rect x="162" y="2" width="28" height="28" rx="6" fill="#9A3412"/><path d="M168 22L184 10" stroke="#FED7AA" stroke-width="3" stroke-linecap="round"/>

    <rect x="2" y="34" width="28" height="28" rx="6" fill="#047857"/><path d="M8 50H24" stroke="#A7F3D0" stroke-width="3" stroke-linecap="round"/><path d="M16 42V58" stroke="#A7F3D0" stroke-width="3" stroke-linecap="round"/>
    <rect x="34" y="34" width="28" height="28" rx="6" fill="#1D4ED8"/><circle cx="48" cy="48" r="8" fill="#DBEAFE"/>
    <rect x="66" y="34" width="28" height="28" rx="6" fill="#92400E"/><rect x="73" y="41" width="14" height="14" rx="3" fill="#FCD34D"/>
    <rect x="98" y="34" width="28" height="28" rx="6" fill="#7C3AED"/><path d="M106 54L118 42" stroke="#E9D5FF" stroke-width="3" stroke-linecap="round"/>
    <rect x="130" y="34" width="28" height="28" rx="6" fill="#0F766E"/><circle cx="144" cy="48" r="4" fill="#CCFBF1"/><circle cx="144" cy="48" r="9" stroke="#67E8F9" stroke-width="2"/>
    <rect x="162" y="34" width="28" height="28" rx="6" fill="#B91C1C"/><path d="M170 54L182 42" stroke="#FECACA" stroke-width="3" stroke-linecap="round"/><path d="M170 42L182 54" stroke="#FECACA" stroke-width="3" stroke-linecap="round"/>

    <rect x="2" y="66" width="28" height="28" rx="6" fill="#15803D"/><path d="M9 87L16 73L23 87" stroke="#DCFCE7" stroke-width="3" stroke-linecap="round" stroke-linejoin="round"/>
    <rect x="34" y="66" width="28" height="28" rx="6" fill="#2563EB"/><path d="M40 87C43 79 53 79 56 87" stroke="#E0F2FE" stroke-width="3" stroke-linecap="round"/>
    <rect x="66" y="66" width="28" height="28" rx="6" fill="#CA8A04"/><circle cx="80" cy="80" r="7" fill="#FEF08A"/>
    <rect x="98" y="66" width="28" height="28" rx="6" fill="#9333EA"/><rect x="106" y="74" width="12" height="12" rx="6" fill="#F3E8FF"/>
    <rect x="130" y="66" width="28" height="28" rx="6" fill="#0D9488"/><path d="M136 80H152" stroke="#CCFBF1" stroke-width="3" stroke-linecap="round"/><path d="M144 72V88" stroke="#CCFBF1" stroke-width="3" stroke-linecap="round"/>
    <rect x="162" y="66" width="28" height="28" rx="6" fill="#C2410C"/><path d="M170 72H182V88H170Z" fill="#FFEDD5"/>

    <rect x="2" y="98" width="28" height="28" rx="6" fill="#166534"/><circle cx="16" cy="112" r="5" fill="#BBF7D0"/><path d="M16 107V117" stroke="#14532D" stroke-width="2"/>
    <rect x="34" y="98" width="28" height="28" rx="6" fill="#1E40AF"/><path d="M40 118L48 106L56 118" stroke="#DBEAFE" stroke-width="3" stroke-linecap="round" stroke-linejoin="round"/>
    <rect x="66" y="98" width="28" height="28" rx="6" fill="#A16207"/><path d="M72 112H88" stroke="#FEF3C7" stroke-width="3" stroke-linecap="round"/>
    <rect x="98" y="98" width="28" height="28" rx="6" fill="#6B21A8"/><path d="M112 104L118 112L112 120L106 112Z" fill="#F5D0FE"/>
    <rect x="130" y="98" width="28" height="28" rx="6" fill="#0F766E"/><rect x="138" y="106" width="12" height="12" rx="2" fill="#99F6E4"/>
    <rect x="162" y="98" width="28" height="28" rx="6" fill="#9F1239"/><circle cx="176" cy="112" r="8" fill="#FBCFE8"/>
  </g>
</svg>
